<svg width="461.523" height="95.41" viewBox="0 0 461.523 95.41" xmlns="http://www.w3.org/2000/svg"><g id="svgGroup" stroke-linecap="round" fill-rule="evenodd" font-size="9pt" stroke="#000" stroke-width="0.25mm" fill="#000000" style="stroke:#000;stroke-width:0.25mm;fill:#000000"><path d="M 397.217 71.387 L 397.217 0 L 410.84 0 L 410.84 34.473 Q 410.84 37.012 410.767 40.088 A 344.992 344.992 0 0 1 410.571 46.118 A 2199.169 2199.169 0 0 1 410.483 48.227 Q 410.448 49.062 410.415 49.822 A 1228.274 1228.274 0 0 1 410.352 51.27 A 118.405 118.405 0 0 1 410.309 52.161 Q 410.233 53.627 410.156 54.199 L 410.449 54.199 L 443.408 0 L 461.523 0 L 461.523 71.387 L 448.047 71.387 L 448.047 37.109 A 174.505 174.505 0 0 1 448.071 34.253 A 223.359 223.359 0 0 1 448.145 31.152 Q 448.242 27.93 448.413 24.902 Q 448.531 22.821 448.637 21.121 A 407.948 407.948 0 0 1 448.73 19.653 Q 448.85 17.838 448.905 17.017 A 1105.805 1105.805 0 0 1 448.926 16.699 L 448.535 16.699 L 415.43 71.387 L 397.217 71.387 Z M 15.137 71.387 L 0 71.387 L 0 0 L 56.494 0 L 56.494 71.387 L 41.406 71.387 L 41.406 12.598 L 15.137 12.598 L 15.137 71.387 Z M 262.109 16.797 L 276.514 16.797 L 276.514 38.379 Q 276.514 40.039 276.392 42.554 Q 276.27 45.068 276.074 47.656 A 287.02 287.02 0 0 1 275.891 49.964 Q 275.8 51.05 275.71 52.02 A 171.031 171.031 0 0 1 275.684 52.295 A 241.306 241.306 0 0 1 275.597 53.184 Q 275.465 54.517 275.391 55.078 L 300.586 16.797 L 318.506 16.797 L 318.506 71.387 L 304.102 71.387 L 304.102 49.609 A 86.041 86.041 0 0 1 304.15 46.783 A 114.657 114.657 0 0 1 304.297 43.677 A 274.85 274.85 0 0 1 304.504 40.521 A 230.327 230.327 0 0 1 304.736 37.549 A 523.082 523.082 0 0 0 304.849 36.197 Q 305.005 34.302 305.078 33.203 L 279.98 71.387 L 262.109 71.387 L 262.109 16.797 Z M 349.023 43.311 L 369.922 16.797 L 386.328 16.797 L 364.697 42.969 L 388.232 71.387 L 371.338 71.387 L 349.023 43.701 L 349.023 71.387 L 334.131 71.387 L 334.131 16.797 L 349.023 16.797 L 349.023 43.311 Z M 195.898 16.797 L 210.791 16.797 L 210.791 37.793 L 231.592 37.793 L 231.592 16.797 L 246.484 16.797 L 246.484 71.387 L 231.592 71.387 L 231.592 48.877 L 210.791 48.877 L 210.791 71.387 L 195.898 71.387 L 195.898 16.797 Z M 88.232 65.381 L 87.451 65.381 A 39.5 39.5 0 0 1 88.037 69.385 A 42.236 42.236 0 0 1 88.232 73.385 A 18.191 18.191 0 0 1 88.232 73.389 L 88.232 95.41 L 73.34 95.41 L 73.34 16.797 L 85.449 16.797 L 87.549 23.877 L 88.232 23.877 A 20.696 20.696 0 0 1 91.537 20.057 A 23.023 23.023 0 0 1 91.797 19.824 A 15.13 15.13 0 0 1 95.256 17.548 A 18.407 18.407 0 0 1 96.851 16.87 Q 99.805 15.771 103.711 15.771 A 19.173 19.173 0 0 1 111.585 17.349 Q 115.543 19.108 118.533 22.831 A 23.078 23.078 0 0 1 118.628 22.949 Q 124.316 30.127 124.316 43.994 A 53.558 53.558 0 0 1 123.939 50.537 Q 123.309 55.643 121.631 59.595 A 25.358 25.358 0 0 1 118.902 64.515 A 18.823 18.823 0 0 1 114.209 69.141 A 18.679 18.679 0 0 1 104.273 72.344 A 22.879 22.879 0 0 1 103.32 72.363 Q 99.952 72.363 97.399 71.637 A 14.465 14.465 0 0 1 96.533 71.362 A 18.738 18.738 0 0 1 93.763 70.136 A 14.664 14.664 0 0 1 91.699 68.774 A 23.043 23.043 0 0 1 89.099 66.38 A 20.11 20.11 0 0 1 88.232 65.381 Z M 157.227 51.074 L 144.922 71.387 L 128.809 71.387 L 143.506 49.805 Q 140.723 48.633 138.281 46.558 A 15.136 15.136 0 0 1 134.926 42.46 A 18.031 18.031 0 0 1 134.326 41.309 A 14.87 14.87 0 0 1 133.156 37.638 Q 132.813 35.809 132.813 33.691 Q 132.813 25.537 138.989 21.167 Q 144.727 17.108 153.561 16.819 A 41.974 41.974 0 0 1 154.932 16.797 L 180.322 16.797 L 180.322 71.387 L 165.43 71.387 L 165.43 51.074 L 157.227 51.074 Z M 88.232 42.285 L 88.232 43.896 Q 88.232 49.17 89.233 52.832 Q 90.187 56.32 92.38 58.213 A 8.306 8.306 0 0 0 92.603 58.398 A 8.022 8.022 0 0 0 95.416 59.827 Q 96.537 60.154 97.868 60.256 A 16.366 16.366 0 0 0 99.121 60.303 A 10.042 10.042 0 0 0 101.694 59.989 A 7.506 7.506 0 0 0 104.736 58.398 Q 106.659 56.732 107.74 53.701 A 17.708 17.708 0 0 0 108.032 52.808 Q 109.131 49.121 109.131 43.799 Q 109.131 36.33 106.964 32.301 A 11.29 11.29 0 0 0 106.641 31.738 A 8.077 8.077 0 0 0 100.789 27.828 A 11.698 11.698 0 0 0 98.926 27.686 A 15.348 15.348 0 0 0 96.444 27.874 Q 95.132 28.089 94.067 28.55 A 7.548 7.548 0 0 0 92.725 29.297 A 8.214 8.214 0 0 0 90.295 32.023 A 11.484 11.484 0 0 0 89.38 34.131 Q 88.58 36.586 88.333 40.034 A 43.596 43.596 0 0 0 88.232 42.285 Z M 157.129 41.064 L 165.43 41.064 L 165.43 27.295 L 155.225 27.295 A 13.177 13.177 0 0 0 153.046 27.463 Q 150.659 27.864 149.316 29.224 Q 147.412 31.152 147.412 33.789 Q 147.412 37.207 150.122 39.136 A 9.919 9.919 0 0 0 153.547 40.665 Q 154.919 41.002 156.526 41.055 A 18.409 18.409 0 0 0 157.129 41.064 Z" vector-effect="non-scaling-stroke"/></g></svg>